<svg><g xmlns="http://www.w3.org/2000/svg">
		<g>
			<path style="fill:#40645C;" d="M831.514,364.466c0.098,0.134,0.18,0.287,0.251,0.432c1.173,2.4,2.346,4.8,3.519,7.2     c0.191,0.391,0.402,0.804,0.775,1.028c0.288,0.172,0.634,0.208,0.967,0.241c2.467,0.238,4.935,0.476,7.402,0.714     c0.442,0.043,0.975,0.154,1.115,0.575c0.134,0.404-0.193,0.802-0.493,1.103c-2,1.999-3.999,3.998-5.998,5.997     c-0.213,0.213-0.434,0.44-0.514,0.73c-0.076,0.277-0.012,0.571,0.052,0.852c0.504,2.194,1.008,4.388,1.512,6.583     c0.112,0.489,0.318,1.501-0.091,1.92c-0.649,0.665-1.431-0.142-2.134-0.526c-1.922-1.047-3.845-2.093-5.768-3.139     c-0.446-0.243-0.912-0.491-1.419-0.515c-0.759-0.035-1.438,0.432-2.064,0.862c-1.866,1.283-3.832,2.419-5.876,3.394     c-0.245,0.117-0.527,0.233-0.779,0.132c-0.421-0.168-0.417-0.758-0.339-1.205c0.464-2.668,0.929-5.336,1.393-8.005     c0.043-0.247,0.085-0.504,0.017-0.745c-0.08-0.284-0.3-0.503-0.511-0.708c-1.949-1.891-3.898-3.782-5.848-5.673     c-0.241-0.234-0.501-0.518-0.466-0.852c0.054-0.509,0.7-0.677,1.21-0.723c2.463-0.223,4.918-0.523,7.362-0.9     c0.567-0.087,1.162-0.191,1.611-0.549c0.438-0.348,0.672-0.886,0.89-1.401c0.883-2.091,1.767-4.183,2.651-6.274     c0.188-0.445,0.493-0.968,0.976-0.939C831.167,364.093,831.36,364.257,831.514,364.466z"/>
		</g>
		<path style="fill:#40645C;" d="M918.447,589.954c-0.427-1.465-1.601-2.725-2.729-3.911c-15.888-16.711-30.851-32.44-44.961-47.274    c-0.911-0.958-1.812-1.904-2.716-2.855c11.764,5.98,25.118,10.285,38.192,9.196c2.813-0.234,4.848-2.96,4.099-5.53    c-0.387-1.329-1.452-2.472-2.476-3.549c-14.416-15.162-27.991-29.434-40.794-42.893c-0.269-0.283-0.534-0.561-0.803-0.844    c9.744,4.611,20.553,7.757,31.16,6.874c2.484-0.207,4.28-2.614,3.619-4.883c-0.342-1.174-1.283-2.183-2.186-3.133    c-12.729-13.389-24.717-25.991-36.022-37.876c-0.068-0.071-0.133-0.14-0.201-0.211c7.22,3.066,15.028,5.009,22.706,4.37    c2.033-0.169,3.503-2.139,2.962-3.996c-0.28-0.961-1.05-1.787-1.789-2.565c-10.417-10.957-20.227-21.269-29.479-30.996    c-4.276-4.495-8.438-8.87-12.489-13.131c-1.909-2.008-3.793-3.99-5.654-5.948c-0.717-0.755-4.489-5.728-5.442-5.728    c-1.233-1.298-3.697-1.264-4.993,0c-17.797,17.358-33.543,36.052-54.069,56.952c-2.09,2.201-0.717,4.832,2.177,5.317    c6.71,1.123,15.606-1.92,24.255-6.273c-12.121,13.077-24.586,26.838-38.975,41.489c-2.553,2.689-0.877,5.905,2.661,6.497    c9.201,1.54,21.77-3.322,33.497-9.675c-14.095,15.186-28.548,31.18-45.306,48.243c-2.892,3.046-0.993,6.688,3.013,7.358    c11.266,1.886,26.988-4.702,41.145-12.736c-16.238,17.442-32.799,35.854-52.146,55.553c-3.187,3.357-1.094,7.371,3.321,8.11    c19.751,3.306,51.929-17.016,69.821-29.802l-0.613,37.843h27.319l-0.586-36.226c15.736,12.524,43.375,30.544,69.963,28.33    C917.029,595.791,919.272,592.786,918.447,589.954z"/>
	</g>
</svg>